<svg xmlns="http://www.w3.org/2000/svg" viewBox="0 0 800 200" role="img" aria-labelledby="flowTitle flowDesc">
  <title id="flowTitle">f“nAĆ</title>
  <desc id="flowDesc">5ŗKČķLW„TĆkxěĘ%„¨g/ä‘čAĆ</desc>
  <defs>
    <linearGradient id="ch1" x1="0" y1="0" x2="1" y2="1"><stop offset="0%" style="stop-color:#6366f1"/><stop offset="100%" style="stop-color:#4f46e5"/></linearGradient>
    <linearGradient id="ch2" x1="0" y1="0" x2="1" y2="1"><stop offset="0%" style="stop-color:#8b5cf6"/><stop offset="100%" style="stop-color:#7c3aed"/></linearGradient>
    <linearGradient id="ch3" x1="0" y1="0" x2="1" y2="1"><stop offset="0%" style="stop-color:#06b6d4"/><stop offset="100%" style="stop-color:#0891b2"/></linearGradient>
    <linearGradient id="ch4" x1="0" y1="0" x2="1" y2="1"><stop offset="0%" style="stop-color:#f59e0b"/><stop offset="100%" style="stop-color:#d97706"/></linearGradient>
    <linearGradient id="ch5" x1="0" y1="0" x2="1" y2="1"><stop offset="0%" style="stop-color:#10b981"/><stop offset="100%" style="stop-color:#059669"/></linearGradient>
    <marker id="arrow" markerWidth="8" markerHeight="8" refX="6" refY="4" orient="auto">
      <path d="M0,0 L8,4 L0,8 Z" fill="#64748b"/>
    </marker>
  </defs>
  <rect width="800" height="200" fill="#0a0e1a" rx="12"/>
  <text x="400" y="36" text-anchor="middle" fill="#94a3b8" font-family="system-ui, sans-serif" font-size="13" font-weight="600" letter-spacing="0.08em">LEARNING FLOW</text>
  <g transform="translate(40, 56)">
    <rect x="0" y="0" width="56" height="56" rx="12" fill="url(#ch1)"/>
    <text x="28" y="36" text-anchor="middle" fill="white" font-family="system-ui, sans-serif" font-size="18" font-weight="700">1</text>
    <rect x="64" y="0" width="56" height="56" rx="12" fill="url(#ch2)"/>
    <text x="92" y="36" text-anchor="middle" fill="white" font-family="system-ui, sans-serif" font-size="18" font-weight="700">2</text>
    <rect x="128" y="0" width="56" height="56" rx="12" fill="url(#ch3)"/>
    <text x="156" y="36" text-anchor="middle" fill="white" font-family="system-ui, sans-serif" font-size="18" font-weight="700">3</text>
    <rect x="192" y="0" width="56" height="56" rx="12" fill="url(#ch4)"/>
    <text x="220" y="36" text-anchor="middle" fill="white" font-family="system-ui, sans-serif" font-size="18" font-weight="700">4</text>
    <rect x="256" y="0" width="56" height="56" rx="12" fill="url(#ch5)"/>
    <text x="284" y="36" text-anchor="middle" fill="white" font-family="system-ui, sans-serif" font-size="18" font-weight="700">5</text>
  </g>
  <line x1="360" y1="84" x2="400" y2="84" stroke="#475569" stroke-width="2" marker-end="url(#arrow)"/>
  <g transform="translate(408, 52)">
    <rect x="0" y="0" width="168" height="64" rx="14" fill="rgba(30,41,59,0.95)" stroke="rgba(99,102,241,0.45)" stroke-width="1.5"/>
    <text x="84" y="28" text-anchor="middle" fill="#e2e8f0" font-family="system-ui, sans-serif" font-size="14" font-weight="600">4ěĮ§ļ</text>
    <text x="84" y="48" text-anchor="middle" fill="#64748b" font-family="system-ui, sans-serif" font-size="11">sB’£Ł…–√Į</text>
  </g>
  <line x1="584" y1="84" x2="624" y2="84" stroke="#475569" stroke-width="2" marker-end="url(#arrow)"/>
  <g transform="translate(632, 48)">
    <rect x="0" y="0" width="128" height="72" rx="14" fill="rgba(30,41,59,0.95)" stroke="rgba(16,185,129,0.4)" stroke-width="1.5"/>
    <text x="64" y="30" text-anchor="middle" fill="#e2e8f0" font-family="system-ui, sans-serif" font-size="13" font-weight="600">xěĘ%„¨</text>
    <text x="64" y="50" text-anchor="middle" fill="#64748b" font-family="system-ui, sans-serif" font-size="10">SQuBOK ¬g</text>
  </g>
  <text x="400" y="178" text-anchor="middle" fill="#475569" font-family="system-ui, sans-serif" font-size="11">ŗ% ∑ 1Ļ ∑ ďĒÕ© ∑ !žf40O / 60	jiKČxy~Y</text>
</svg>
